<svg 
 id="saai-icon" data-name="saai-icon"
 xmlns="http://www.w3.org/2000/svg"
 xmlns:xlink="http://www.w3.org/1999/xlink"
 width="26px" height="23px">
<path fill-rule="evenodd"  fill="rgb(255, 255, 255)"
 d="M2.931,-0.015 C4.355,0.322 5.147,0.617 5.484,2.018 C5.551,2.298 5.659,2.849 5.531,3.153 C5.484,3.232 5.436,3.310 5.389,3.389 C4.832,3.405 4.077,3.452 3.735,3.247 C3.765,2.626 3.670,2.112 3.262,1.924 C3.030,1.795 2.683,1.810 2.505,1.971 C2.020,2.202 2.059,3.193 2.222,3.767 C2.992,4.285 4.165,4.491 4.869,5.091 C5.938,6.001 5.664,8.944 4.869,9.913 C3.337,11.781 -0.763,9.848 0.236,7.549 C0.268,7.486 0.299,7.423 0.331,7.360 C0.899,7.344 1.682,7.292 2.033,7.502 C1.999,8.118 2.057,8.546 2.458,8.731 C2.717,8.886 3.132,8.809 3.404,8.731 C3.808,8.190 3.858,6.958 3.451,6.367 C2.664,6.129 1.579,5.686 0.993,5.185 C-0.046,4.299 0.185,1.809 0.945,0.836 C1.439,0.205 2.074,0.298 2.931,-0.015 ZM11.582,10.575 C11.456,9.850 11.330,9.125 11.204,8.400 C10.636,8.416 10.069,8.432 9.502,8.447 C9.376,9.156 9.250,9.866 9.124,10.575 C8.582,10.587 7.758,10.659 7.375,10.480 C7.225,9.586 7.773,8.263 7.989,7.407 C8.525,4.965 9.061,2.522 9.596,0.080 C10.101,0.080 10.605,0.080 11.109,0.080 C11.109,0.112 11.109,0.143 11.109,0.175 C11.661,2.648 12.212,5.123 12.764,7.596 C12.934,8.278 13.541,9.707 13.331,10.385 C13.299,10.448 13.268,10.512 13.236,10.575 C12.685,10.575 12.133,10.575 11.582,10.575 ZM19.476,10.575 C19.350,9.850 19.224,9.125 19.098,8.400 C18.531,8.416 17.964,8.432 17.396,8.447 C17.270,9.156 17.144,9.866 17.018,10.575 C16.476,10.587 15.652,10.659 15.269,10.480 C15.119,9.586 15.667,8.263 15.884,7.407 C16.419,4.965 16.955,2.522 17.491,0.080 C17.995,0.080 18.499,0.080 19.004,0.080 C19.004,0.112 19.004,0.143 19.004,0.175 C19.555,2.648 20.107,5.123 20.658,7.596 C20.829,8.278 21.435,9.707 21.225,10.385 C21.194,10.448 21.162,10.512 21.131,10.575 C20.579,10.575 20.028,10.575 19.476,10.575 ZM23.589,0.080 C24.203,0.061 24.897,0.033 25.244,0.269 C25.244,2.711 25.244,5.154 25.244,7.596 C25.244,8.462 25.448,9.972 25.102,10.575 C24.478,10.594 23.754,10.626 23.400,10.385 C23.400,7.943 23.400,5.500 23.400,3.058 C23.400,2.156 23.211,0.659 23.589,0.080 ZM9.880,6.651 C10.195,6.651 10.510,6.651 10.825,6.651 C10.825,6.604 10.825,6.556 10.825,6.509 C10.652,5.753 10.479,4.996 10.305,4.240 C10.164,5.044 10.022,5.847 9.880,6.651 ZM17.775,6.651 C18.090,6.651 18.405,6.651 18.720,6.651 C18.720,6.604 18.720,6.556 18.720,6.509 C18.547,5.753 18.373,4.996 18.200,4.240 C18.058,5.044 17.916,5.847 17.775,6.651 Z"/>
<path fill-rule="evenodd"  fill="rgb(255, 255, 255)"
 d="M0.851,11.284 C1.419,11.267 2.202,11.216 2.553,11.425 C2.537,13.836 2.521,16.248 2.505,18.658 C2.505,19.594 2.669,21.166 2.269,21.778 C1.717,21.787 0.946,21.767 0.615,21.542 C0.646,18.170 0.678,14.797 0.709,11.425 C0.756,11.378 0.804,11.331 0.851,11.284 ZM8.556,13.458 C8.698,12.749 8.840,12.040 8.982,11.331 C9.560,11.315 10.372,11.258 10.731,11.473 C9.959,14.908 9.187,18.343 8.415,21.778 C7.895,21.778 7.374,21.778 6.855,21.778 C6.335,19.289 5.814,16.799 5.295,14.309 C5.092,13.493 4.555,12.120 4.775,11.331 C4.806,11.315 4.838,11.299 4.869,11.284 C5.405,11.284 5.941,11.284 6.476,11.284 C6.602,12.008 6.728,12.733 6.855,13.458 C7.422,13.458 7.989,13.458 8.556,13.458 ZM12.764,11.378 C13.315,11.394 13.867,11.410 14.418,11.425 C14.544,12.134 14.670,12.844 14.796,13.553 C15.348,13.553 15.899,13.553 16.451,13.553 C16.593,12.844 16.735,12.134 16.876,11.425 C17.299,11.409 18.294,11.301 18.531,11.520 C18.578,11.567 18.625,11.615 18.673,11.662 C17.885,15.065 17.097,18.469 16.309,21.873 C15.789,21.857 15.269,21.841 14.749,21.825 C14.024,18.422 13.299,15.018 12.575,11.615 C12.638,11.536 12.701,11.457 12.764,11.378 ZM22.502,11.378 C24.362,11.320 25.368,11.977 25.669,13.458 C25.760,13.904 25.782,14.347 25.575,14.687 C25.017,14.704 24.262,14.750 23.920,14.545 C23.941,13.954 23.844,13.648 23.636,13.316 C23.276,13.206 22.992,13.177 22.596,13.269 C22.254,13.548 21.959,14.883 22.313,15.491 C22.595,15.976 23.735,16.123 24.251,16.389 C25.325,16.943 26.090,18.719 25.433,20.360 C25.131,21.115 24.488,21.764 23.636,21.967 C21.787,22.409 19.367,20.312 20.516,18.611 C21.130,18.592 21.824,18.564 22.171,18.800 C22.151,19.417 22.277,19.732 22.502,20.076 C22.738,20.108 22.975,20.139 23.211,20.171 C23.832,19.874 23.921,18.934 23.636,18.185 C22.747,17.738 21.369,17.407 20.800,16.625 C20.086,15.646 20.304,13.140 20.942,12.276 C21.325,11.758 21.867,11.666 22.502,11.378 ZM7.233,15.207 C7.375,16.027 7.516,16.846 7.658,17.665 C7.674,17.665 7.690,17.665 7.705,17.665 C7.863,16.846 8.021,16.027 8.178,15.207 C7.863,15.207 7.548,15.207 7.233,15.207 ZM16.073,15.302 C15.758,15.302 15.442,15.302 15.127,15.302 C15.285,16.121 15.442,16.941 15.600,17.760 C15.600,17.728 15.600,17.697 15.600,17.665 C15.758,16.878 15.915,16.090 16.073,15.302 Z"/>
</svg>